Coordinates
version=1
nRows=24
nColumns=38
inDegrees=no

Units are S.I. units (second, meters, Newtons, ...)
If the header above contains a line with 'inDegrees', this indicates whether rotational values are in degrees (yes) or radians (no).

endheader
time	pelvis_tilt	pelvis_list	pelvis_rotation	pelvis_tx	pelvis_ty	pelvis_tz	hip_flexion_r	hip_adduction_r	hip_rotation_r	knee_angle_r	ankle_angle_r	subtalar_angle_r	mtp_angle_r	hip_flexion_l	hip_adduction_l	hip_rotation_l	knee_angle_l	ankle_angle_l	subtalar_angle_l	mtp_angle_l	lumbar_extension	lumbar_bending	lumbar_rotation	arm_flex_r	arm_add_r	arm_rot_r	elbow_flex_r	pro_sup_r	wrist_flex_r	wrist_dev_r	arm_flex_l	arm_add_l	arm_rot_l	elbow_flex_l	pro_sup_l	wrist_flex_l	wrist_dev_l
2.21	-0.200513	-0.0402803	0.0100994	1.19282	0.948591	-0.334116	0.3918	0.175088	0.0999137	-0.887124	0.427894	-0.0357565	-0.0276456	0.752739	-0.00427468	0.0614327	-1.91322	0.175977	-0.0730814	-0.0679285	-0.0862427	0.0913364	0.206463	-0.340646	-0.254766	-0.214821	2.27183	1.68469	-0.00115532	0.0049211	-0.606807	-0.20867	-0.0660625	1.77286	1.64665	0.0221798	0.0340483
2.22	-0.213728	-0.01888	0.00792572	1.19447	0.954438	-0.334174	0.332186	0.148864	0.110531	-0.82872	0.388031	-0.0357565	-0.0276456	0.801656	0.0151871	0.0468631	-1.85303	0.171461	-0.0730814	-0.0679285	-0.0628605	0.0631948	0.232389	-0.334082	-0.250102	-0.200769	2.30655	1.70167	-0.00115532	0.0049211	-0.653144	-0.216473	-0.0789564	1.80629	1.63156	0.0221798	0.0340483
2.23	-0.227779	0.00324988	0.00532518	1.1966	0.960745	-0.334247	0.273212	0.120177	0.116819	-0.76611	0.331631	-0.0357565	-0.0276456	0.844734	0.035991	0.030992	-1.78178	0.166295	-0.0730814	-0.0679285	-0.0378391	0.0341099	0.255229	-0.328893	-0.248878	-0.180165	2.3405	1.72011	-0.00115532	0.0049211	-0.702603	-0.222088	-0.0951072	1.84377	1.61783	0.0221798	0.0340483
2.24	-0.242179	0.0251175	0.00295937	1.19911	0.967249	-0.334388	0.215997	0.0902738	0.118133	-0.701782	0.260516	-0.0357565	-0.0276456	0.881391	0.0582197	0.0165476	-1.70016	0.160227	-0.0730814	-0.0679285	-0.0119705	0.00525979	0.274381	-0.324303	-0.251363	-0.153165	2.37215	1.73859	-0.00115532	0.0049211	-0.754019	-0.224726	-0.114426	1.88313	1.60569	0.0221798	0.0340483
2.25	-0.256495	0.045777	0.00132414	1.20185	0.973708	-0.334629	0.161668	0.0606711	0.114816	-0.638609	0.177688	-0.0357565	-0.0276456	0.91114	0.081588	0.0057231	-1.60858	0.152636	-0.0730814	-0.0679285	0.0139536	-0.0222741	0.289615	-0.319866	-0.257471	-0.120531	2.40039	1.75568	-0.00115532	0.0049211	-0.806045	-0.224037	-0.136365	1.9226	1.59513	0.0221798	0.0340483
2.26	-0.270311	0.064343	0.000672947	1.20467	0.979909	-0.334966	0.111251	0.0331154	0.108336	-0.579749	0.0872461	-0.0357565	-0.0276456	0.933519	0.105332	-6.35534e-05	-1.50724	0.142701	-0.0730814	-0.0679285	0.0391257	-0.0475147	0.301065	-0.315458	-0.26683	-0.0835599	2.42458	1.77	-0.00115532	0.0049211	-0.85719	-0.220118	-0.16	1.96083	1.58602	0.0221798	0.0340483
2.27	-0.283194	0.0800082	0.000996797	1.2074	0.985668	-0.335359	0.0655416	0.00947717	0.101194	-0.528414	-0.00583707	-0.0357565	-0.0276456	0.948059	0.128256	-0.000223539	-1.39625	0.129665	-0.0730814	-0.0679285	0.0627115	-0.0695853	0.309177	-0.311229	-0.278878	-0.0439515	2.44443	1.78032	-0.00115532	0.0049211	-0.90587	-0.213467	-0.184158	1.99691	1.57832	0.0221798	0.0340483
2.28	-0.294678	0.0920784	0.00205986	1.20993	0.990839	-0.335725	0.025001	-0.00841729	0.096565	-0.487582	-0.0961063	-0.0357565	-0.0276456	0.954311	0.148903	0.00508789	-1.27593	0.113107	-0.0730814	-0.0679285	0.0838634	-0.0877208	0.314597	-0.307534	-0.292934	-0.00363535	2.45996	1.78572	-0.00115532	0.0049211	-0.950474	-0.204868	-0.207572	2.03027	1.57207	0.0221798	0.0340483
2.29	-0.304256	0.0999729	0.00347564	1.21218	0.995314	-0.335963	-0.0102536	-0.0190156	0.0977018	-0.459751	-0.178145	-0.0357565	-0.0276456	0.951933	0.165816	0.0151467	-1.14701	0.0931172	-0.0730814	-0.0679285	0.101766	-0.101334	0.318031	-0.304856	-0.308266	0.035426	2.47132	1.78571	-0.00115532	0.0049211	-0.989453	-0.195264	-0.229046	2.06059	1.56747	0.0221798	0.0340483
2.3	-0.311496	0.103364	0.00480274	1.21411	0.999005	-0.335966	-0.040406	-0.0212539	0.10717	-0.446785	-0.247185	-0.0357565	-0.0276456	0.940779	0.177819	0.0288973	-1.01085	0.0702764	-0.0730814	-0.0679285	0.115663	-0.110059	0.320103	-0.303708	-0.324126	0.0714284	2.47869	1.78036	-0.00115532	0.0049211	-1.02142	-0.185609	-0.2476	2.08771	1.56471	0.0221798	0.0340483
2.31	-0.316063	0.102298	0.00566293	1.2157	1.00184	-0.335669	-0.065731	-0.014769	0.126098	-0.449897	-0.299712	-0.0357565	-0.0276456	0.921062	0.184238	0.045174	-0.869587	0.0454722	-0.0730814	-0.0679285	0.124986	-0.113818	0.321257	-0.304558	-0.339759	0.102876	2.4822	1.77038	-0.00115532	0.0049211	-1.04529	-0.176757	-0.262577	2.11158	1.56399	0.0221798	0.0340483
2.32	-0.317787	0.0971931	0.00580695	1.21697	1.00376	-0.335066	-0.086381	-8.70835e-05	0.15365	-0.469718	-0.333957	-0.0357565	-0.0276456	0.893491	0.185051	0.0628493	-0.726238	0.0196673	-0.0730814	-0.0679285	0.129448	-0.11291	0.321705	-0.307755	-0.354413	0.128685	2.48183	1.75704	-0.00115532	0.0049211	-1.06032	-0.169381	-0.273693	2.1322	1.56535	0.0221798	0.0340483
2.33	-0.316724	0.0888573	0.00514734	1.21795	1.00474	-0.334205	-0.102227	0.0212941	0.186946	-0.506381	-0.350158	-0.0357565	-0.0276456	0.859395	0.180925	0.0808961	-0.58475	-0.00626376	-0.0730814	-0.0679285	0.129118	-0.108057	0.321422	-0.313471	-0.367356	0.148241	2.47744	1.74204	-0.00115532	0.0049211	-1.06625	-0.163939	-0.281024	2.14963	1.56872	0.0221798	0.0340483
2.34	-0.313153	0.0784421	0.00374289	1.21866	1.00478	-0.333192	-0.112813	0.0469648	0.221525	-0.559584	-0.350446	-0.0357565	-0.0276456	0.820799	0.173121	0.0983777	-0.450027	-0.0315729	-0.0730814	-0.0679285	0.124411	-0.100371	0.320201	-0.321658	-0.377908	0.161405	2.46875	1.72712	-0.00115532	0.0049211	-1.06323	-0.16069	-0.28494	2.16397	1.57382	0.0221798	0.0340483
2.35	-0.307536	0.0673365	0.00174286	1.21911	1.00387	-0.332163	-0.117458	0.073827	0.252267	-0.628587	-0.338361	-0.0357565	-0.0276456	0.780425	0.163307	0.114406	-0.327919	-0.0555574	-0.0730814	-0.0679285	0.116014	-0.0912532	0.317739	-0.332028	-0.385488	0.168469	2.4554	1.71368	-0.00115532	0.0049211	-1.05181	-0.159729	-0.285994	2.17535	1.58023	0.0221798	0.0340483
2.36	-0.300462	0.0569988	-0.000679236	1.21923	1.00201	-0.331255	-0.115474	0.0984646	0.274452	-0.712164	-0.318111	-0.0357565	-0.0276456	0.741608	0.153295	0.128105	-0.225149	-0.0773977	-0.0730814	-0.0679285	0.10473	-0.0822019	0.313721	-0.344057	-0.389651	0.17006	2.43698	1.70254	-0.00115532	0.0049211	-1.03281	-0.161045	-0.284797	2.18393	1.58744	0.0221798	0.0340483
2.37	-0.292515	0.0487124	-0.00334767	1.2189	0.999188	-0.330574	-0.10637	0.117555	0.284607	-0.80854	-0.293789	-0.0357565	-0.0276456	0.708059	0.144821	0.138665	-0.148925	-0.096032	-0.0730814	-0.0679285	0.0913695	-0.0746482	0.307856	-0.357041	-0.390115	0.166992	2.4131	1.69397	-0.00115532	0.0049211	-1.00717	-0.164587	-0.281905	2.18983	1.59485	0.0221798	0.0340483
2.38	-0.28417	0.0434675	-0.00608663	1.21803	0.995391	-0.330154	-0.0899922	0.12832	0.281052	-0.915403	-0.268728	-0.0357565	-0.0276456	0.683386	0.139338	0.145409	-0.105983	-0.110127	-0.0730814	-0.0679285	0.0766295	-0.069773	0.299886	-0.370161	-0.386754	0.16013	2.38339	1.68782	-0.00115532	0.0049211	-0.97583	-0.170303	-0.27774	2.19307	1.6018	0.0221798	0.0340483
2.39	-0.275781	0.041881	-0.00872829	1.21654	0.990634	-0.329977	-0.0665695	0.128927	0.264097	-1.03005	-0.245114	-0.0357565	-0.0276456	0.670299	0.137865	0.14788	-0.101004	-0.118216	-0.0730814	-0.0679285	0.060999	-0.0683958	0.289593	-0.382569	-0.379594	0.150266	2.34762	1.6838	-0.00115532	0.0049211	-0.939568	-0.178162	-0.272562	2.19356	1.6077	0.0221798	0.0340483
2.4	-0.267533	0.0441644	-0.011134	1.21438	0.984938	-0.329994	-0.036675	0.118788	0.235921	-1.14957	-0.223881	-0.0357565	-0.0276456	0.669929	0.140893	0.145904	-0.135241	-0.118764	-0.0730814	-0.0679285	0.0447094	-0.0709185	0.276804	-0.393476	-0.36879	0.138046	2.30567	1.68167	-0.00115532	0.0049211	-0.898976	-0.188131	-0.266485	2.19104	1.61211	0.0221798	0.0340483
2.41	-0.259438	0.050151	-0.0132259	1.21153	0.978361	-0.330133	-0.00111368	0.0987087	0.200201	-1.27108	-0.204866	-0.0357565	-0.0276456	0.681466	0.148381	0.139676	-0.205809	-0.110177	-0.0730814	-0.0679285	0.0277557	-0.0773199	0.261415	-0.402244	-0.354628	0.123965	2.2577	1.6814	-0.00115532	0.0049211	-0.854452	-0.200139	-0.259534	2.18515	1.61485	0.0221798	0.0340483
2.42	-0.251368	0.0593652	-0.0150398	1.20805	0.971096	-0.330329	0.0391924	0.0708612	0.161619	-1.39183	-0.187115	-0.0357565	-0.0276456	0.702019	0.159815	0.129872	-0.305543	-0.091127	-0.0730814	-0.0679285	0.00996462	-0.087204	0.243425	-0.408468	-0.337524	0.108417	2.20415	1.68319	-0.00115532	0.0049211	-0.806292	-0.214008	-0.25172	2.17547	1.61609	0.0221798	0.0340483
2.43	-0.243107	0.0710909	-0.0167574	1.20409	0.963531	-0.330493	0.0833547	0.0385171	0.125208	-1.50928	-0.169303	-0.0357565	-0.0276456	0.727023	0.174334	0.117643	-0.42399	-0.060946	-0.0730814	-0.0679285	-0.00885088	-0.0998646	0.222978	-0.412043	-0.318044	0.0917787	2.14596	1.68732	-0.00115532	0.0049211	-0.754825	-0.229401	-0.243141	2.1617	1.61638	0.0221798	0.0340483
2.44	-0.234437	0.0844165	-0.0187125	1.19982	0.956151	-0.330536	0.130713	0.00559513	0.0955637	-1.62114	-0.150153	-0.0357565	-0.0276456	0.751368	0.190848	0.104435	-0.549648	-0.0197755	-0.0730814	-0.0679285	-0.0286443	-0.114321	0.200367	-0.413222	-0.296933	0.0744999	2.08457	1.6939	-0.00115532	0.0049211	-0.700589	-0.245765	-0.234069	2.14385	1.6166	0.0221798	0.0340483
